<?xml version="1.0" encoding="utf-8"?>
<!-- Generator: Adobe Illustrator 19.1.0, SVG Export Plug-In . SVG Version: 6.00 Build 0)  -->
<svg version="1.1" id="Layer_1" xmlns="http://www.w3.org/2000/svg" xmlns:xlink="http://www.w3.org/1999/xlink" x="0px" y="0px"
	 viewBox="0 0 48 48" style="enable-background:new 0 0 48 48;" xml:space="preserve">
<style type="text/css">
	.st0{fill:none;stroke:#808080;stroke-width:5;stroke-miterlimit:10;}
	.st1{fill:none;stroke:#808080;stroke-miterlimit:10;}
	.st2{fill:#808080;}
</style>
<line class="st0" x1="3.3" y1="6.5" x2="45.2" y2="6.5"/>
<rect x="3.3" y="3.5" class="st1" width="41.9" height="41.9"/>
<g>
	<g>
		<path class="st2" d="M26,34.9l-4.6,4.6c-0.2,0.2-0.4,0.2-0.6,0L10.3,28.9c-0.2-0.2-0.2-0.4,0-0.6l4.6-4.6c0.2-0.2,0.4-0.2,0.6,0
			L26,34.3C26.2,34.5,26.2,34.7,26,34.9z"/>
		<path class="st2" d="M20.8,39.5l-4.6-4.6c-0.2-0.2-0.2-0.4,0-0.6l16.6-16.6c0.2-0.2,0.4-0.2,0.6,0l4.6,4.6c0.2,0.2,0.2,0.4,0,0.6
			L21.4,39.5C21.3,39.6,21,39.6,20.8,39.5z"/>
	</g>
</g>
</svg>
