<?xml version="1.0" encoding="utf-8"?>
<!-- Generator: Adobe Illustrator 19.1.0, SVG Export Plug-In . SVG Version: 6.00 Build 0)  -->
<svg version="1.1" id="Laag_1" xmlns="http://www.w3.org/2000/svg" xmlns:xlink="http://www.w3.org/1999/xlink" x="0px" y="0px"
	 viewBox="0 0 283.5 283.5" style="enable-background:new 0 0 283.5 283.5;" xml:space="preserve">
<style type="text/css">
	.st0{opacity:0.5;fill:#7BCAE9;}
	.st1{opacity:0.55;fill:#41ADDB;}
	.st2{opacity:0.5;fill:#41ADDB;}
</style>
<path class="st0" d="M31.1,139.7c0,0,68.3-38.4,121.5-13.6s71.1,103.4,71.1,103.4s-73.8,40.3-127,15.5S31.1,139.7,31.1,139.7z"/>
<path class="st1" d="M151,29.9c0,0,75.5,21.1,95.5,76.3s-22.9,123.4-22.9,123.4s-80.7-23.7-100.8-78.8S151,29.9,151,29.9z"/>
<path class="st2" d="M81.5,71.3c0,0,77.9-8.7,117.1,34.9s25,123,25,123s-83.7,8.3-123-35.3S81.5,71.3,81.5,71.3z"/>
</svg>
